<svg width="20" height="20" viewBox="0 0 20 20" fill="none" xmlns="http://www.w3.org/2000/svg">
<path d="M6.27387 4.71042C7.10233 6.14535 6.74843 7.3233 5.79181 7.8756C4.83519 8.42791 3.6381 8.14542 2.80965 6.71049C1.98119 5.27557 2.08509 3.66459 3.04171 3.11229C3.99833 2.55998 5.44542 3.27549 6.27387 4.71042Z" fill="#A2A7AA"/>
<path d="M16.1688 6.73264C17.1254 6.18033 17.4793 5.00239 16.6508 3.56746C15.8224 2.13253 14.3753 1.41702 13.4187 1.96933C12.462 2.52163 12.3581 4.1326 13.1866 5.56753C14.0151 7.00246 15.2121 7.28494 16.1688 6.73264Z" fill="#A2A7AA"/>
<path d="M4.67977 10.479C5.50823 11.9139 5.15432 13.0918 4.1977 13.6441C3.24108 14.1964 2.044 13.914 1.21554 12.479C0.387087 11.0441 0.490983 9.43313 1.4476 8.88083C2.40422 8.32852 3.85131 9.04403 4.67977 10.479Z" fill="#A2A7AA"/>
<path d="M5.88887 16.7939C5.39513 15.9388 6.0513 14.8416 6.59539 14.0175C6.77869 13.7399 6.77465 13.3149 6.76978 12.8021C6.75828 11.5913 6.74212 9.89121 9.17561 8.48623C11.6091 7.08126 13.0734 7.9453 14.1161 8.56063C14.5578 8.82126 14.9239 9.03727 15.256 9.01734C16.2417 8.95818 17.5199 8.9385 18.0137 9.79368L18.4021 10.4665C19.5803 12.5071 19.0357 15.207 16.8965 16.1948C16.7926 16.2428 16.6906 16.288 16.5909 16.3298C16.2267 16.4827 15.9782 16.5235 15.7289 16.5644C15.3497 16.6266 14.9686 16.6891 14.1758 17.1468C13.383 17.6045 13.1383 17.9033 12.8948 18.2006C12.7347 18.3961 12.5752 18.5909 12.2607 18.8299C12.1746 18.8952 12.0845 18.961 11.991 19.027C10.0659 20.3857 7.45547 19.5074 6.27734 17.4668L5.88887 16.7939Z" fill="#A2A7AA"/>
<path d="M10.3757 5.22917C11.3323 4.67687 11.6862 3.49892 10.8578 2.06399C10.0293 0.629064 8.58223 -0.0864448 7.62561 0.465859C6.66899 1.01816 6.56509 2.62914 7.39355 4.06407C8.22201 5.499 9.41909 5.78148 10.3757 5.22917Z" fill="#A2A7AA"/>
</svg>
