<svg width="20" height="20" viewBox="0 0 20 20" fill="none" xmlns="http://www.w3.org/2000/svg">
<path d="M7.18886 10.5985L8.11681 10.9712C8.26431 10.6039 8.18136 10.1843 7.90524 9.90077L7.18886 10.5985ZM10.4931 7.23675L9.79025 7.94814C10.0781 8.23253 10.509 8.3154 10.8818 8.15808L10.4931 7.23675ZM4.55534 1.37071L5.25814 0.659321C5.0928 0.495978 4.87573 0.395328 4.64423 0.374667L4.55534 1.37071ZM1.08008 1.06055L1.16897 0.0645059C0.875983 0.038357 0.586341 0.142532 0.377127 0.349308C0.167913 0.556084 0.0603505 0.844486 0.0830637 1.13776L1.08008 1.06055ZM1.36441 4.73195L0.367399 4.80916C0.404657 5.29024 0.780125 5.67611 1.26001 5.72648L1.36441 4.73195ZM3.52788 4.95907L4.52788 4.95907C4.52788 4.4472 4.14136 4.01798 3.63229 3.96454L3.52788 4.95907ZM3.52788 6.89541H2.52788C2.52788 7.40776 2.91511 7.83723 3.42473 7.89008L3.52788 6.89541ZM5.51006 7.10098L6.50847 7.04472C6.48085 6.55457 6.10152 6.15696 5.61321 6.10632L5.51006 7.10098ZM5.61615 8.98369L4.61774 9.03995C4.63131 9.28079 4.73148 9.5086 4.89977 9.6814L5.61615 8.98369ZM7.7501 12.8785C7.7501 12.2025 7.88059 11.5593 8.11681 10.9712L6.26091 10.2258C5.9311 11.0469 5.7501 11.9428 5.7501 12.8785H7.7501ZM12.8709 17.9993C10.0428 17.9993 7.7501 15.7066 7.7501 12.8785H5.7501C5.7501 16.8112 8.93819 19.9993 12.8709 19.9993V17.9993ZM17.9917 12.8785C17.9917 15.7066 15.699 17.9993 12.8709 17.9993V19.9993C16.8036 19.9993 19.9917 16.8112 19.9917 12.8785H17.9917ZM12.8709 7.75771C15.699 7.75771 17.9917 10.0504 17.9917 12.8785H19.9917C19.9917 8.9458 16.8036 5.75771 12.8709 5.75771V7.75771ZM10.8818 8.15808C11.4921 7.90057 12.1635 7.75771 12.8709 7.75771V5.75771C11.8916 5.75771 10.9561 5.95594 10.1043 6.31542L10.8818 8.15808ZM11.1959 6.52536L5.25814 0.659321L3.85254 2.0821L9.79025 7.94814L11.1959 6.52536ZM4.64423 0.374667L1.16897 0.0645059L0.991183 2.05659L4.46644 2.36675L4.64423 0.374667ZM0.0830637 1.13776L0.367399 4.80916L2.36143 4.65473L2.07709 0.983332L0.0830637 1.13776ZM1.26001 5.72648L3.42347 5.9536L3.63229 3.96454L1.46882 3.73741L1.26001 5.72648ZM2.52788 4.95907L2.52788 6.89541H4.52788L4.52788 4.95907L2.52788 4.95907ZM3.42473 7.89008L5.4069 8.09565L5.61321 6.10632L3.63103 5.90075L3.42473 7.89008ZM4.51164 7.15725L4.61774 9.03995L6.61457 8.92743L6.50847 7.04472L4.51164 7.15725ZM4.89977 9.6814L6.47248 11.2962L7.90524 9.90077L6.33253 8.28598L4.89977 9.6814Z" fill="#808587"/>
</svg>
