<svg width="14" height="22" viewBox="0 0 14 22" fill="none" xmlns="http://www.w3.org/2000/svg">
<path d="M7 0C7.55228 0 8 0.447715 8 1V3H9.79167C12.1159 3 14 4.88413 14 7.20833H12C12 5.9887 11.0113 5 9.79167 5H8V9H6V5H4.5C3.11929 5 2 6.11929 2 7.5C2 8.88071 3.11929 10 4.5 10H9.5C11.9853 10 14 12.0147 14 14.5C14 16.9853 11.9853 19 9.5 19H8V21C8 21.5523 7.55228 22 7 22C6.44772 22 6 21.5523 6 21V19H4.20833C1.88414 19 0 17.1159 0 14.7917H2C2 16.0113 2.9887 17 4.20833 17H6L6 13H8V17H9.5C10.8807 17 12 15.8807 12 14.5C12 13.1193 10.8807 12 9.5 12H4.5C2.01472 12 0 9.98528 0 7.5C0 5.01472 2.01472 3 4.5 3H6V1C6 0.447715 6.44772 0 7 0Z" fill="#A2A7AA"/>
</svg>
