<svg width="20" height="18" viewBox="0 0 20 18" fill="none" xmlns="http://www.w3.org/2000/svg">
<path d="M5.16822 0C3.61955 0 2.31906 1.17849 2.20683 2.72309C2.1481 3.53145 2.10187 4.30029 2.06814 5.04675C1.17117 5.24417 0.5 6.0437 0.5 7V8.2C0.5 8.64183 0.858172 9 1.3 9H1.5C1.68474 9 1.85777 8.9499 2.00627 8.86256C2.02988 10.5251 2.12021 12.2284 2.27745 14.1828C2.35327 15.1253 3.08467 15.8649 4.00014 15.9834C4.00005 15.9889 4 15.9945 4 16V17C4 17.5523 4.44772 18 5 18H5.5C6.05228 18 6.5 17.5523 6.5 17V16H13.5V17C13.5 17.5523 13.9477 18 14.5 18H15C15.5523 18 16 17.5523 16 17V16C16 15.993 15.9999 15.986 15.9998 15.979C16.8902 15.8492 17.601 15.1307 17.6863 14.2111C17.8673 12.2589 17.9701 10.5506 17.9944 8.86293C18.1427 8.95004 18.3155 9 18.5 9H18.7C19.1418 9 19.5 8.64183 19.5 8.2V7C19.5 6.03893 18.8221 5.23619 17.9184 5.04384C17.8793 4.29202 17.8263 3.5143 17.7591 2.69387C17.6338 1.16201 16.3387 0 14.8017 0H5.16822ZM5 5H15C15.5523 5 16 5.44772 16 6V10C16 10.5523 15.5523 11 15 11H5C4.44772 11 4 10.5523 4 10V6C4 5.44772 4.44772 5 5 5ZM15 14C14.4477 14 14 13.5523 14 13C14 12.4477 14.4477 12 15 12C15.5523 12 16 12.4477 16 13C16 13.5523 15.5523 14 15 14ZM6 13C6 13.5523 5.55229 14 5 14C4.44772 14 4 13.5523 4 13C4 12.4477 4.44772 12 5 12C5.55229 12 6 12.4477 6 13Z" fill="#A2A7AA"/>
</svg>
