<svg width="22" height="18" viewBox="0 0 22 18" fill="none" xmlns="http://www.w3.org/2000/svg">
<path d="M11.0002 0C11.5524 0 12.0002 0.447715 12.0002 1V2.5C12.0002 3.05228 11.5524 3.5 11.0002 3.5C10.4479 3.5 10.0002 3.05228 10.0002 2.5V1C10.0002 0.447715 10.4479 0 11.0002 0Z" fill="#808587"/>
<path d="M6.75751 6.75736C7.88273 5.63214 9.40885 5 11.0002 5C12.5915 5 14.1176 5.63214 15.2428 6.75736C16.368 7.88258 17.0002 9.4087 17.0002 11C17.0002 11.7879 16.845 12.5681 16.5434 13.2961C16.2419 14.0241 15.7999 14.6855 15.2428 15.2426C14.9594 15.526 14.6491 15.7796 14.3168 16H19.0002C19.5524 16 20.0002 16.4477 20.0002 17C20.0002 17.5523 19.5524 18 19.0002 18L3.00015 18C2.44787 18 2.00015 17.5523 2.00015 17C2.00015 16.4477 2.44787 16 3.00015 16H7.68353C7.35119 15.7796 7.04087 15.526 6.75751 15.2426C6.20036 14.6855 5.7584 14.0241 5.45688 13.2961C5.15535 12.5681 5.00015 11.7879 5.00015 11C5.00015 9.4087 5.63229 7.88258 6.75751 6.75736Z" fill="#808587"/>
<path d="M3.29304 3.29289C3.68357 2.90237 4.31673 2.90237 4.70726 3.29289L5.70726 4.29289C6.09778 4.68342 6.09778 5.31658 5.70726 5.70711C5.31673 6.09763 4.68357 6.09763 4.29304 5.70711L3.29304 4.70711C2.90252 4.31658 2.90252 3.68342 3.29304 3.29289Z" fill="#808587"/>
<path d="M1.58594 10C1.03365 10 0.585938 10.4477 0.585938 11C0.585938 11.5523 1.03365 12 1.58594 12H3.00015C3.55244 12 4.00015 11.5523 4.00015 11C4.00015 10.4477 3.55244 10 3.00015 10H1.58594Z" fill="#808587"/>
<path d="M18.0001 11C18.0001 10.4477 18.4479 10 19.0001 10H20.4144C20.9666 10 21.4144 10.4477 21.4144 11C21.4144 11.5523 20.9666 12 20.4144 12H19.0001C18.4479 12 18.0001 11.5523 18.0001 11Z" fill="#808587"/>
<path d="M17.293 3.29289C17.6836 2.90237 18.3167 2.90237 18.7073 3.29289C19.0978 3.68342 19.0978 4.31658 18.7073 4.70711L17.7073 5.70711C17.3167 6.09763 16.6836 6.09763 16.293 5.70711C15.9025 5.31658 15.9025 4.68342 16.293 4.29289L17.293 3.29289Z" fill="#808587"/>
</svg>
