<svg width="22" height="20" viewBox="0 0 22 20" fill="none" xmlns="http://www.w3.org/2000/svg">
<path d="M11.669 2.94811C11.2887 2.60584 10.7113 2.60584 10.331 2.94811L4 8.64605V18.0007H9.99999C10.5523 18.0007 11 18.4484 11 19.0007C11 19.553 10.5523 20.0007 9.99999 20.0007H4C2.89543 20.0007 2 19.1053 2 18.0007V10.4461L1.66897 10.744C1.25846 11.1134 0.626173 11.0802 0.256714 10.6696C-0.112745 10.2591 -0.0794662 9.62685 0.331044 9.25739L8.99311 1.46152C10.134 0.434701 11.866 0.434699 13.0069 1.46152L21.669 9.25739C22.0795 9.62685 22.1128 10.2591 21.7433 10.6696C21.3738 11.0802 20.7416 11.1134 20.331 10.744L11.669 2.94811Z" fill="#A2A7AA"/>
<path d="M11 7.60132C9.96984 7.60132 9.13474 8.43642 9.13474 9.46657C9.13474 10.4967 9.96984 11.3318 11 11.3318C12.0301 11.3318 12.8653 10.4967 12.8653 9.46657C12.8653 8.43642 12.0301 7.60132 11 7.60132Z" fill="#A2A7AA"/>
<path d="M17.2428 12.4159C17.6333 12.0254 18.2665 12.0254 18.657 12.4159L20.9314 14.6903C21.5172 15.2761 21.5172 16.2259 20.9314 16.8116L18.657 19.086C18.2665 19.4765 17.6333 19.4765 17.2428 19.086C16.8523 18.6955 16.8523 18.0623 17.2428 17.6718L18.1636 16.751H13.2502C12.698 16.751 12.2502 16.3033 12.2502 15.751C12.2502 15.1987 12.698 14.751 13.2502 14.751H18.1636L17.2428 13.8302C16.8523 13.4396 16.8523 12.8065 17.2428 12.4159Z" fill="#A2A7AA"/>
</svg>
